<svg id="Слой_1" data-name="Слой 1" xmlns="http://www.w3.org/2000/svg" viewBox="0 0 736.84 348.42"><defs><style>.cls-1{fill:#05a2c6;}.cls-2{fill:#00b2ec;}.cls-3{fill:#fff;}</style></defs><path class="cls-1" d="M779.24,505.05,741.32,691.41c-64-33.91-43.8-156.35-36.5-191.55A9.63,9.63,0,0,1,716,492.18Z" transform="translate(-327.16 -492)"/><path class="cls-1" d="M740,691.14,777.9,504.78l63.23,12.87a9.6,9.6,0,0,1,7.3,11.44C841.4,564.34,812.14,684.93,740,691.14Z" transform="translate(-327.16 -492)"/><path class="cls-1" d="M571.14,505.05l37.93,186.36c64-33.91,43.8-156.35,36.49-191.55a9.62,9.62,0,0,0-11.19-7.68Z" transform="translate(-327.16 -492)"/><path class="cls-1" d="M610.41,691.14,572.48,504.78l-63.23,12.87a9.62,9.62,0,0,0-7.3,11.44C509,564.34,538.24,684.93,610.41,691.14Z" transform="translate(-327.16 -492)"/><path class="cls-2" d="M677.17,513.49V732.83c-80.12-23.62-85.46-166.63-85.3-208.09a11.1,11.1,0,0,1,10.88-11.25Z" transform="translate(-327.16 -492)"/><path class="cls-2" d="M675.59,732.83V513.49H750a11.09,11.09,0,0,1,10.88,11.25C761.05,566.2,755.72,709.21,675.59,732.83Z" transform="translate(-327.16 -492)"/><rect class="cls-3" x="283.36" y="99.77" width="133.8" height="36.05" rx="12.89"/><rect class="cls-3" x="332.23" y="50.9" width="36.05" height="133.8" rx="12.89"/><path class="cls-2" d="M389.87,771.37c0-1.66-1-2.48-3-2.48V766.4h21.23v2.49a2.63,2.63,0,0,0-1.73.62,2.26,2.26,0,0,0-.75,1.86v62.57a2.26,2.26,0,0,0,.75,1.86,2.63,2.63,0,0,0,1.73.62v2.48H386.84v-2.48c2,0,3-.83,3-2.48V808H345.49v25.91a2.24,2.24,0,0,0,.76,1.86,2.6,2.6,0,0,0,1.72.62v2.48H327.16v-2.48c1.74,0,2.62-.83,2.62-2.48V771.37c0-1.66-.88-2.48-2.62-2.48V766.4H348v2.49a2.6,2.6,0,0,0-1.72.62,2.24,2.24,0,0,0-.76,1.86V794.8h44.38Z" transform="translate(-327.16 -492)"/><path class="cls-2" d="M485.8,791.08q0-2.62-4.27-2.62H447.9v13.78h21.23a12.55,12.55,0,0,0,3.44-.34c.74-.23,1.1-.85,1.1-1.87h2.48v14.62H473.4a1.33,1.33,0,0,0-1.1-1.87,21.25,21.25,0,0,0-4.28-.34H447.9V828.7h35.28a4.8,4.8,0,0,0,2.76-.75,2.32,2.32,0,0,0,1.1-2h2.48v14.47H487c0-.83-.36-1.29-1.1-1.38a23.23,23.23,0,0,0-2.76-.14H432.6v-2.48a2.4,2.4,0,0,0,1.38-.48,1.79,1.79,0,0,0,.69-1.58V782.81a1.8,1.8,0,0,0-.69-1.59,2.4,2.4,0,0,0-1.38-.48v-2.48h48.93q4.28,0,4.27-2.48h2.48v15.3Z" transform="translate(-327.16 -492)"/><path class="cls-2" d="M500,836.42a4.19,4.19,0,0,0,2.69-1.58,14.88,14.88,0,0,0,1.58-2.41l20.54-44.8c.55-1.29,1-2.32,1.31-3.1a6,6,0,0,0,.48-2.27c0-.56-.11-.9-.34-1l-.76-.48v-2.48h20.81v2.48a3.14,3.14,0,0,1-.89.41c-.33.09-.49.46-.49,1.11a4.48,4.48,0,0,0,.62,2c.42.78.85,1.68,1.31,2.69l22.33,46.86a5,5,0,0,0,1.52,1.79,6.21,6.21,0,0,0,1.79.83v2.48H552.93v-2.06a3,3,0,0,0,1.44-.42,1.55,1.55,0,0,0,.76-1.51,4.15,4.15,0,0,0-.27-1.52c-.19-.46-.42-1.06-.69-1.79l-3.72-7.86H521l-3.86,7.45a19.79,19.79,0,0,0-.89,2,4.55,4.55,0,0,0-.35,1.59q0,1.1.69,1.38a5.46,5.46,0,0,0,1.93.27v2.48H500Zm46-22.88-11.17-23.15-9.78,23.15Z" transform="translate(-327.16 -492)"/><path class="cls-2" d="M600.34,836.42a2.4,2.4,0,0,0,1.38-.48,1.79,1.79,0,0,0,.69-1.58v-45.9H584.49a4.06,4.06,0,0,0-2.07.55,1.9,1.9,0,0,0-1,1.79H579V775h2.48a3,3,0,0,0,1,2.62,3.48,3.48,0,0,0,2.07.69h49.07a3.52,3.52,0,0,0,2.07-.69,3,3,0,0,0,1-2.62h2.48V790.8h-2.48a1.9,1.9,0,0,0-1-1.79,4.11,4.11,0,0,0-2.07-.55H615.64v45.9c0,1.37.83,2.06,2.48,2.06v2.48H600.34Z" transform="translate(-327.16 -492)"/><path class="cls-2" d="M670.91,834.36a1.89,1.89,0,0,0,.62,1.58,2.3,2.3,0,0,0,1.45.48v2.48H655.61v-2.48a2.32,2.32,0,0,0,1.45-.48,1.89,1.89,0,0,0,.62-1.58V782.81a1.9,1.9,0,0,0-.62-1.59,2.32,2.32,0,0,0-1.45-.48v-2.48H673v2.48a2.3,2.3,0,0,0-1.45.48,1.9,1.9,0,0,0-.62,1.59v19.43h36.94V782.81a1.9,1.9,0,0,0-.62-1.59,2.3,2.3,0,0,0-1.45-.48v-2.48h17.37v2.48a2.3,2.3,0,0,0-1.45.48,1.9,1.9,0,0,0-.62,1.59v51.55a1.89,1.89,0,0,0,.62,1.58,2.3,2.3,0,0,0,1.45.48v2.48H705.78v-2.48a2.3,2.3,0,0,0,1.45-.48,1.89,1.89,0,0,0,.62-1.58V813.54H670.91Z" transform="translate(-327.16 -492)"/><path class="cls-2" d="M823.76,829a3.48,3.48,0,0,1-.75-.07,3.64,3.64,0,0,0-.76-.07,12.71,12.71,0,0,0-3.93,1.66q-3.11,1.65-7.86,3.72a70,70,0,0,1-10.82,3.58A52.12,52.12,0,0,1,787,839.32a62.33,62.33,0,0,1-16.67-2.21,41.61,41.61,0,0,1-14.13-6.82,33.62,33.62,0,0,1-9.72-11.51,37.95,37.95,0,0,1,0-32.18A34.1,34.1,0,0,1,756.16,775a43,43,0,0,1,14.13-7A59,59,0,0,1,787,765.58a68,68,0,0,1,12.75,1.1q5.71,1.11,10,2.34a54.84,54.84,0,0,1,6.75,2.35,12.36,12.36,0,0,0,3,1.1,1.4,1.4,0,0,0,1.17-.69l.76-1.1,2.07,1.65L812.74,789l-1.38-1a4.54,4.54,0,0,0-.07-.82c0-.28-.12-.6-.21-1-.18-1-1.1-2-2.75-3.1a28.44,28.44,0,0,0-6.14-2.82,62.44,62.44,0,0,0-7.71-2.07,38.12,38.12,0,0,0-7.52-.83,37.08,37.08,0,0,0-11.09,1.65,27.84,27.84,0,0,0-9.24,4.83,23.51,23.51,0,0,0-6.27,7.79,24.91,24.91,0,0,0,0,21.08,23.51,23.51,0,0,0,6.27,7.79,27.66,27.66,0,0,0,9.24,4.83A37.08,37.08,0,0,0,787,827.05a44.09,44.09,0,0,0,9.24-1A55.53,55.53,0,0,0,805,823.4a29.12,29.12,0,0,0,6.68-3.59c1.8-1.33,2.69-2.59,2.69-3.79a2.55,2.55,0,0,0-.55-1.65l1.93-1.1,9.1,14.61Z" transform="translate(-327.16 -492)"/><path class="cls-2" d="M837,836.42a4.17,4.17,0,0,0,2.69-1.58,15,15,0,0,0,1.59-2.41l20.53-44.8c.55-1.29,1-2.32,1.31-3.1a6,6,0,0,0,.48-2.27c0-.56-.11-.9-.34-1l-.76-.48v-2.48H883.3v2.48a3.14,3.14,0,0,1-.89.41q-.48.14-.48,1.11a4.35,4.35,0,0,0,.62,2c.41.78.84,1.68,1.31,2.69l22.32,46.86a5,5,0,0,0,1.52,1.79,6.21,6.21,0,0,0,1.79.83v2.48H889.92v-2.06a3,3,0,0,0,1.45-.42,1.57,1.57,0,0,0,.76-1.51,4.15,4.15,0,0,0-.28-1.52c-.19-.46-.41-1.06-.69-1.79l-3.72-7.86h-29.5l-3.86,7.45c-.36.73-.66,1.4-.89,2a4.55,4.55,0,0,0-.35,1.59q0,1.1.69,1.38a5.5,5.5,0,0,0,1.93.27v2.48H837Zm46-22.88-11.17-23.15-9.78,23.15Z" transform="translate(-327.16 -492)"/><path class="cls-2" d="M960.35,778.26q12.27,0,19.16,4.06t6.89,13.86a15.17,15.17,0,0,1-1.38,6.61,16.54,16.54,0,0,1-3.65,5,19.24,19.24,0,0,1-5,3.45,28.82,28.82,0,0,1-5.65,2L984.2,833a7.77,7.77,0,0,0,2.41,2.27,11.34,11.34,0,0,0,2.82,1.17v2.48H968.35v-2.48c1.19,0,1.79-.41,1.79-1.24s-.69-2.34-2.07-4.27l-10.89-16.26H938v19.71a1.66,1.66,0,0,0,.9,1.58,3.65,3.65,0,0,0,1.72.48v2.48H922.31v-2.48c1.65,0,2.48-.69,2.48-2.06V782.81c0-1.38-.83-2.07-2.48-2.07v-2.48Zm-.27,26.19q13.5,0,13.5-8.55a6.12,6.12,0,0,0-3.24-5.44c-2.15-1.33-5.58-2-10.26-2H938.3v16Z" transform="translate(-327.16 -492)"/><path class="cls-2" d="M1060.28,791.08c0-1.75-1.43-2.62-4.27-2.62h-33.64v13.78h21.23a12.63,12.63,0,0,0,3.45-.34c.73-.23,1.1-.85,1.1-1.87h2.48v14.62h-2.76a1.32,1.32,0,0,0-1.1-1.87,21.07,21.07,0,0,0-4.27-.34h-20.13V828.7h35.29a4.82,4.82,0,0,0,2.76-.75,2.35,2.35,0,0,0,1.1-2H1064v14.47h-2.48a1.2,1.2,0,0,0-1.1-1.38,23.35,23.35,0,0,0-2.76-.14h-50.58v-2.48a2.4,2.4,0,0,0,1.37-.48,1.79,1.79,0,0,0,.69-1.58V782.81a1.8,1.8,0,0,0-.69-1.59,2.4,2.4,0,0,0-1.37-.48v-2.48H1056c2.84,0,4.27-.83,4.27-2.48h2.48v15.3Z" transform="translate(-327.16 -492)"/></svg>